<svg width="148" height="56" viewBox="0 0 148 56" fill="none" xmlns="http://www.w3.org/2000/svg">
<path d="M33.136 26.176C33.136 24.336 31.488 23.344 29.296 23.344C28.064 23.344 26.384 23.456 25.152 23.52C25.28 24.384 25.312 25.008 25.312 25.904V33.968C26.576 33.968 27.744 34.048 29.328 34.048C31.664 34.048 33.584 33.088 33.584 30.88C33.584 29.488 32.688 28.736 31.536 28.496C32.432 28.16 33.136 27.408 33.136 26.176ZM27.44 25.088C28.048 25.056 28.544 25.04 29.136 25.04C30.208 25.04 31.04 25.44 31.04 26.448C31.04 27.44 30.224 27.92 29.12 27.92C28.688 27.92 28.144 27.92 27.44 27.92V25.088ZM27.44 32.352V29.44C28.24 29.424 28.752 29.424 29.408 29.424C30.56 29.424 31.472 29.84 31.472 30.88C31.472 31.936 30.528 32.352 29.344 32.352H27.44ZM41.3536 34.096C42.1216 34.08 42.5856 34.016 43.3216 33.888C43.1936 33.2 43.1136 32.464 43.1136 31.808V26.144C42.6496 26.192 42.2496 26.224 41.9616 26.224C41.4016 26.224 40.5536 25.84 39.4496 25.84C36.9696 25.84 34.9056 27.568 34.9056 30.176C34.9056 32.608 36.4576 34.16 38.5376 34.16C39.7056 34.16 40.5376 33.552 41.1296 32.72C41.1936 33.296 41.3056 33.808 41.3536 34.096ZM39.3376 27.504C39.8816 27.504 40.4576 27.632 41.0336 27.792V31.2C40.6976 31.92 39.9776 32.496 39.0656 32.496C37.8816 32.496 37.0176 31.616 37.0176 30.048C37.0176 28.528 37.9456 27.504 39.3376 27.504ZM51.5758 31.6C51.0318 32.144 50.3278 32.48 49.4798 32.48C48.1838 32.48 47.0958 31.6 47.0958 30C47.0958 28.4 48.1998 27.504 49.5278 27.504C50.2958 27.504 50.9358 27.76 51.5278 28.24C51.6878 27.888 52.0078 26.944 52.0398 26.464C51.3038 26.064 50.4718 25.84 49.5918 25.84C47.1278 25.84 44.9838 27.488 44.9838 30.112C44.9838 32.656 46.9358 34.16 49.2878 34.16C50.4078 34.16 51.3358 33.824 52.0558 33.328C51.9918 32.72 51.7838 32.032 51.5758 31.6ZM55.8589 22.512C54.9789 22.56 54.4349 22.624 53.5869 22.784C53.7309 23.328 53.7789 23.856 53.7789 24.528V34.032L55.8589 33.968V31.504C56.1789 31.248 56.5149 30.976 56.8349 30.688C57.6989 31.824 58.4829 32.896 59.3789 34.16C60.1469 34.032 60.6589 33.92 61.3629 33.664L61.3789 33.536C60.2429 32.272 58.8509 30.352 58.1949 29.44C59.3789 28.352 60.4669 27.2 61.3149 26.144L59.1389 25.808C58.6429 26.688 56.8189 28.432 55.8589 29.312V22.512ZM72.9519 26H66.2319L66.0079 27.664H68.1999C67.7359 28.832 67.3839 29.872 67.3839 31.12C67.3839 33.136 68.6159 34.144 70.4399 34.144C71.2559 34.144 71.9599 33.952 72.4399 33.712L72.5519 31.968C72.2959 32.112 71.4959 32.416 70.9039 32.416C70.0719 32.416 69.4959 31.856 69.4959 30.848C69.4959 29.712 69.7679 28.8 70.2159 27.664H72.7599L72.9519 26ZM78.2428 25.84C75.8428 25.84 73.8748 27.632 73.8748 30.112C73.8748 32.576 75.6988 34.16 78.0828 34.16C80.4828 34.16 82.4508 32.352 82.4508 29.872C82.4508 27.408 80.6268 25.84 78.2428 25.84ZM78.1308 27.504C79.3628 27.504 80.3388 28.448 80.3388 30C80.3388 31.552 79.4108 32.496 78.1788 32.496C76.9468 32.496 75.9868 31.536 75.9868 29.984C75.9868 28.432 76.8988 27.504 78.1308 27.504ZM87.7806 28.816C87.7806 31.936 89.8606 34.192 92.9486 34.192C96.0366 34.192 98.3566 31.808 98.3566 28.608C98.3566 25.488 96.2606 23.248 93.1726 23.248C90.0846 23.248 87.7806 25.616 87.7806 28.816ZM93.0446 25.04C94.9166 25.04 96.1806 26.544 96.1806 28.752C96.1806 30.96 94.9486 32.4 93.0766 32.4C91.2046 32.4 89.9566 30.88 89.9566 28.672C89.9566 26.48 91.1726 25.04 93.0446 25.04ZM100.536 23.44C102.92 24.4 103.992 25.168 105.144 26.48C104.664 26.112 104.264 25.936 103.64 25.936C101.64 25.936 99.64 27.52 99.64 30.032C99.64 32.544 101.512 34.16 103.912 34.16C106.296 34.16 108.232 32.384 108.232 29.888C108.232 26.336 105.272 23.68 102.104 22.432L100.536 23.44ZM101.752 29.984C101.752 28.528 102.744 27.6 103.912 27.6C105.08 27.6 106.104 28.544 106.104 30.016C106.104 31.472 105.192 32.496 103.96 32.496C102.712 32.496 101.752 31.456 101.752 29.984ZM109.739 23.536C109.739 23.872 110.683 24.8 111.067 24.8C111.451 24.8 112.443 23.824 112.443 23.504C112.443 23.184 111.547 22.288 111.131 22.288C110.715 22.288 109.739 23.2 109.739 23.536ZM110.091 34.032L112.171 33.968V25.904C111.419 25.952 110.539 26.08 109.915 26.176C110.027 26.704 110.091 27.152 110.091 27.776V34.032ZM114.638 34.032L116.718 33.968V28.688C117.246 27.888 117.838 27.504 118.702 27.504C119.806 27.504 120.574 28.32 120.574 29.808C120.574 31.136 120.35 32.464 119.982 34.048L122.078 33.952C122.478 32.4 122.686 31.232 122.686 29.632C122.686 27.328 121.326 25.84 119.358 25.84C118.094 25.84 117.278 26.416 116.622 27.296C116.574 26.752 116.526 26.432 116.43 25.904C115.758 25.952 115.182 26.048 114.43 26.176C114.574 26.88 114.638 27.68 114.638 28.608V34.032Z" fill="#FFF7E4"/>
<rect x="0.5" y="0.5" width="147" height="55" rx="27.5" stroke="#FFF7E4"/>
</svg>
