<svg width="50" height="32" viewBox="0 0 50 32" fill="none" xmlns="http://www.w3.org/2000/svg">
<rect width="50" height="32" rx="16" fill="#FFF7E4"/>
<path d="M32.6354 8.99948L32.5759 8.84506C32.5741 8.84063 32.5708 8.83697 32.5665 8.835L32.4188 8.76636C31.2024 8.20124 29.4867 8.0618 27.9687 8H26.2589C26.2396 8 26.2337 8.02668 26.2511 8.03521L29.7631 9.75746C29.7829 9.76714 29.7719 9.79729 29.7506 9.79161C28.1712 9.36968 26.5756 9.15612 25 9.15612C23.4295 9.15612 21.8391 9.36838 20.2645 9.78761C20.2431 9.7933 20.2322 9.76281 20.2523 9.75332L23.8875 8.0354C23.9051 8.02707 23.8993 8.0001 23.8799 8.0001H22.0314C20.5134 8.06189 18.7976 8.20133 17.5813 8.76646L17.4336 8.83509C17.4293 8.83707 17.4259 8.84068 17.4242 8.84516L17.3647 8.99958C16.1199 12.226 15.7661 17.7033 16.1434 21.1347L16.1631 21.3146L16.3031 21.4256C18.2477 22.9681 20.8479 23.7611 22.4837 23.9716L22.6952 23.9988C22.7639 24.0077 22.8296 23.967 22.8539 23.9006L23.9186 20.9911C23.9518 20.9004 23.8952 20.8014 23.8017 20.7863L23.475 20.7338C22.3359 20.5508 20.7218 20.0655 19.3579 18.8001C19.3288 18.7731 19.3568 18.7246 19.3937 18.7385C19.5045 18.7807 19.6267 18.8295 19.7526 18.8798C20.061 19.0031 20.38 19.1305 20.5881 19.1811C22.0508 19.5368 23.5341 19.7173 24.9999 19.7173L24.9999 19.6906H25.003L25.0032 19.7173C26.466 19.7173 27.9492 19.5369 29.4118 19.1811C29.62 19.1305 29.939 19.0031 30.2475 18.8798C30.3732 18.8295 30.4954 18.7806 30.6062 18.7385C30.643 18.7246 30.6711 18.7732 30.642 18.8001C29.2826 20.0599 27.6666 20.5439 26.5248 20.7269L26.1982 20.7792C26.1047 20.7942 26.0481 20.8931 26.0813 20.9838L27.1461 23.9005C27.1704 23.9669 27.2361 24.0076 27.3048 23.9987L27.5165 23.9715C29.1522 23.7611 31.7522 22.9681 33.6969 21.4256L33.8368 21.3146L33.8566 21.1346C34.2339 17.7033 33.8802 12.2259 32.6354 8.99948ZM21.5252 16.9209C20.2028 17.0415 19.0996 15.9131 19.2174 14.5605C19.3077 13.5236 20.1239 12.6886 21.1376 12.5961C22.4599 12.4755 23.5631 13.6039 23.4454 14.9565C23.355 15.9934 22.5388 16.8284 21.5252 16.9209ZM28.8626 16.9209C27.5402 17.0415 26.437 15.9131 26.5548 14.5605C26.6451 13.5236 27.4613 12.6886 28.475 12.5961C29.7973 12.4755 30.9006 13.6039 30.7828 14.9565C30.6924 15.9934 29.8762 16.8284 28.8626 16.9209Z" fill="black"/>
</svg>
