<svg width="48" height="32" viewBox="0 0 48 32" fill="none" xmlns="http://www.w3.org/2000/svg">
<g clip-path="url(#clip0_2_28)">
<path d="M17.4488 16C17.4488 13.8639 17.457 13.6109 17.4956 12.7673C17.5314 11.9874 17.6624 11.5638 17.7725 11.2818C17.9183 10.9084 18.0926 10.6419 18.374 10.362C18.6553 10.0821 18.9232 9.90867 19.2985 9.76357C19.5818 9.65402 20.0076 9.52369 20.7915 9.48809C21.6394 9.4496 21.8937 9.44147 24.0406 9.44147C26.1875 9.44147 26.4418 9.4496 27.2897 9.48809C28.0736 9.52369 28.4994 9.65401 28.7827 9.76357C29.158 9.90867 29.4259 10.0821 29.7072 10.362C29.9886 10.6419 30.1628 10.9084 30.3087 11.2818C30.4188 11.5638 30.5498 11.9874 30.5856 12.7673C30.6242 13.6108 30.6324 13.8638 30.6324 16C30.6324 18.1362 30.6242 18.3892 30.5856 19.2327C30.5498 20.0127 30.4188 20.4363 30.3087 20.7182C30.1628 21.0916 29.9886 21.3581 29.7072 21.638C29.4259 21.918 29.158 22.0914 28.7827 22.2365C28.4994 22.346 28.0736 22.4763 27.2897 22.5119C26.4418 22.5504 26.1875 22.5586 24.0406 22.5586C21.8937 22.5586 21.6394 22.5504 20.7915 22.5119C20.0076 22.4763 19.5818 22.346 19.2985 22.2365C18.9232 22.0914 18.6553 21.918 18.374 21.638C18.0926 21.3581 17.9183 21.0916 17.7725 20.7182C17.6624 20.4363 17.5314 20.0127 17.4956 19.2327C17.457 18.3891 17.4488 18.1361 17.4488 16ZM16 16C16 18.1727 16.0093 18.4451 16.0484 19.2984C16.0875 20.1499 16.2234 20.7314 16.4221 21.2403C16.6276 21.7664 16.9026 22.2125 17.3496 22.6573C17.7966 23.102 18.245 23.3756 18.7737 23.58C19.2852 23.7778 19.8696 23.913 20.7255 23.9519C21.5831 23.9908 21.8569 24 24.0406 24C26.2243 24 26.4981 23.9908 27.3557 23.9519C28.2116 23.913 28.796 23.7778 29.3075 23.58C29.8362 23.3756 30.2846 23.102 30.7316 22.6573C31.1786 22.2125 31.4536 21.7664 31.6591 21.2403C31.8578 20.7314 31.9937 20.1499 32.0328 19.2984C32.0719 18.4451 32.0812 18.1727 32.0812 16C32.0812 13.8273 32.0719 13.5549 32.0328 12.7016C31.9937 11.8501 31.8578 11.2686 31.6591 10.7597C31.4536 10.2336 31.1786 9.78748 30.7316 9.34274C30.2846 8.898 29.8362 8.62445 29.3075 8.42001C28.796 8.22223 28.2116 8.08701 27.3557 8.04814C26.4981 8.00921 26.2243 8 24.0406 8C21.8569 8 21.5831 8.00921 20.7255 8.04814C19.8696 8.08701 19.2852 8.22223 18.7737 8.42001C18.245 8.62445 17.7966 8.898 17.3496 9.34274C16.9026 9.78749 16.6276 10.2336 16.4221 10.7597C16.2234 11.2686 16.0875 11.8501 16.0484 12.7016C16.0093 13.5549 16 13.8273 16 16ZM19.9116 16C19.9116 18.2689 21.7602 20.1081 24.0406 20.1081C26.3209 20.1081 28.1696 18.2689 28.1696 16C28.1696 13.7312 26.3209 11.8919 24.0406 11.8919C21.7602 11.8919 19.9116 13.7312 19.9116 16ZM26.7208 16C26.7208 17.4728 25.5208 18.6667 24.0406 18.6667C22.5604 18.6667 21.3604 17.4728 21.3604 16C21.3604 14.5273 22.5604 13.3333 24.0406 13.3333C25.5208 13.3333 26.7208 14.5273 26.7208 16ZM19.7485 10.7696C20.2814 10.7696 20.7134 11.1994 20.7134 11.7296C20.7134 12.2598 20.2814 12.6896 19.7485 12.6896C19.2156 12.6896 18.7837 12.2598 18.7837 11.7296C18.7837 11.1994 19.2156 10.7696 19.7485 10.7696Z" fill="#FFF7E4"/>
</g>
<rect x="0.5" y="0.5" width="47" height="31" rx="15.5" stroke="#FFF7E4"/>
<defs>
<clipPath id="clip0_2_28">
<rect width="16" height="16.0812" fill="white" transform="translate(16 24) rotate(-90)"/>
</clipPath>
</defs>
</svg>
