<svg width="85" height="32" viewBox="0 0 85 32" fill="none" xmlns="http://www.w3.org/2000/svg">
<rect width="85" height="32" rx="16" fill="#FFF7E4"/>
<path fill-rule="evenodd" clip-rule="evenodd" d="M26.1055 13.2H21.7066L18.5662 9.9308C19.8841 8.73026 21.6097 8 23.5062 8C27.6424 8 31.0125 11.5083 31.0125 15.814C31.0125 17.7788 30.3091 19.5762 29.1528 20.9515L26.1055 17.7792V13.2ZM51.4986 10.6047V21.0232L52.9282 23.2559H45.7795L47.2093 21.0232V10.6047L45.7795 8.37203H52.9282L51.4986 10.6047ZM67.5704 10.6047V24L58.6345 15.9468V21.0232L60.0641 23.2559H53.6302L55.0598 21.0232V10.6047L53.6302 8.37203H57.0257L63.996 15.0697V10.6047L62.5661 8.37203H69L67.5704 10.6047ZM38.2427 12.0931C39.8256 12.0931 41.1022 13.7675 41.1022 15.814C41.1022 17.8605 39.8256 19.5349 38.2427 19.5349H37.1449V12.0931H38.2427ZM38.2172 23.2559C42.1745 23.2559 45.366 19.9336 45.366 15.814C45.366 11.6944 42.1745 8.37213 38.2172 8.37213H31.4257L32.8555 10.6047V21.0232L31.4257 23.2559H38.2172ZM25.381 18.5333H20.9822V13.9543L17.8428 10.6861C16.695 12.0601 16 13.8537 16 15.814C16 20.1196 19.3446 23.6278 23.5061 23.6278C25.3872 23.6278 27.1082 22.9008 28.4275 21.7047L25.381 18.5333Z" fill="black"/>
</svg>
