<svg width="113" height="52" viewBox="0 0 113 52" fill="none" xmlns="http://www.w3.org/2000/svg">
<path d="M33.136 24.176C33.136 22.336 31.488 21.344 29.296 21.344C28.064 21.344 26.384 21.456 25.152 21.52C25.28 22.384 25.312 23.008 25.312 23.904V31.968C26.576 31.968 27.744 32.048 29.328 32.048C31.664 32.048 33.584 31.088 33.584 28.88C33.584 27.488 32.688 26.736 31.536 26.496C32.432 26.16 33.136 25.408 33.136 24.176ZM27.44 23.088C28.048 23.056 28.544 23.04 29.136 23.04C30.208 23.04 31.04 23.44 31.04 24.448C31.04 25.44 30.224 25.92 29.12 25.92C28.688 25.92 28.144 25.92 27.44 25.92V23.088ZM27.44 30.352V27.44C28.24 27.424 28.752 27.424 29.408 27.424C30.56 27.424 31.472 27.84 31.472 28.88C31.472 29.936 30.528 30.352 29.344 30.352H27.44ZM37.3376 28.16C37.3376 26.864 37.6096 25.472 38.1056 23.936C37.2896 23.968 36.8416 23.984 36.0256 24.064C35.6096 25.296 35.2256 26.704 35.2256 28.304C35.2256 30.688 36.6496 32.16 38.5856 32.16C39.9296 32.16 40.6816 31.52 41.2896 30.72C41.3376 31.216 41.3856 31.52 41.5136 32.096C42.2816 32.048 42.7136 32 43.4816 31.888C43.4176 31.472 43.2736 30.384 43.2736 29.392V23.936C42.4736 23.968 42.0096 24 41.1936 24.064V29.264C40.7456 30 40.0896 30.496 39.2256 30.496C38.1216 30.496 37.3376 29.664 37.3376 28.16ZM53.508 23.936C52.708 23.968 52.244 23.984 51.428 24.064V29.232C50.98 29.936 50.34 30.464 49.476 30.464C48.372 30.464 47.572 29.648 47.572 28.16C47.572 26.864 47.844 25.472 48.34 23.936C47.524 23.968 47.076 23.984 46.26 24.064C45.844 25.296 45.46 26.704 45.46 28.304C45.46 30.672 46.884 32.128 48.836 32.128C50.116 32.128 50.852 31.6 51.428 30.816V31.472C51.428 32.672 50.356 33.552 48.98 33.552C48.132 33.552 47.22 33.28 46.26 32.784C46.308 33.84 46.436 34.448 46.452 34.64C47.204 34.928 48.116 35.184 49.124 35.184C51.988 35.184 53.508 33.68 53.508 31.12V23.936ZM60.014 32.048C60.67 32.048 61.582 32.032 62.19 31.968C62.19 30.128 62.158 27.328 62.142 24.64C64.446 27.904 66.078 30.368 67.198 32.096C67.838 32.08 68.83 31.984 69.23 31.92C69.23 29.296 69.278 24.56 69.326 21.376C68.654 21.376 67.646 21.424 67.15 21.456C67.23 23.968 67.23 26.128 67.23 28.624C67.23 28.624 63.806 23.648 62.142 21.312C61.31 21.376 59.902 21.584 59.902 21.584C60.062 22.192 60.126 22.72 60.126 23.44C60.126 26.608 60.094 28.56 60.014 32.048ZM71.7461 21.488C71.8741 22.304 71.9221 22.944 71.9061 23.888L71.8581 32.032C72.5461 32.032 73.3621 32.016 74.0181 31.936V27.936L77.9061 27.984C78.0501 27.376 78.1141 26.832 78.1141 26.192L74.0181 26.272V23.168H76.8021C77.5221 23.168 78.0821 23.2 78.6581 23.28C78.8021 22.64 78.8501 22.08 78.8501 21.424L71.7461 21.488ZM88.2104 21.424L79.7144 21.44L79.4904 23.168H82.7384C81.9544 24.416 81.1064 26.192 81.1064 28.176C81.1064 30.672 82.8664 32.192 85.0904 32.192C86.1464 32.192 86.8504 31.952 87.4104 31.696L87.5224 29.856C87.1864 30.016 86.3384 30.432 85.4584 30.432C84.0664 30.432 83.2344 29.392 83.2344 27.856C83.2344 26.208 84.0664 24.368 84.8184 23.168L88.0184 23.184L88.2104 21.424Z" fill="#FFF7E4"/>
<rect x="0.5" y="0.5" width="112" height="51" rx="25.5" stroke="#FFF7E4"/>
</svg>
