<svg width="52" height="32" viewBox="0 0 52 32" fill="none" xmlns="http://www.w3.org/2000/svg">
<path fill-rule="evenodd" clip-rule="evenodd" d="M36 9.88462C35.2708 10.2051 34.4831 10.4231 33.6367 10.5385C34.5221 10.0256 35.1276 9.27565 35.4531 8.28846C34.6068 8.77564 33.7344 9.10256 32.8359 9.26923C32.0417 8.42307 31.0456 8 29.8477 8C28.7148 8 27.748 8.39423 26.9473 9.18269C26.1465 9.97116 25.7461 10.9231 25.7461 12.0385C25.7461 12.4103 25.7786 12.7179 25.8437 12.9615C24.1641 12.8718 22.5885 12.4551 21.1172 11.7115C19.6458 10.9679 18.3958 9.97437 17.3672 8.73077C16.9896 9.3718 16.8008 10.0513 16.8008 10.7692C16.8008 12.2308 17.3932 13.3526 18.5781 14.1346C17.9661 14.1218 17.3151 13.9551 16.625 13.6346L16.625 13.6731C16.625 14.6346 16.9505 15.4904 17.6016 16.2404C18.2526 16.9904 19.0534 17.4551 20.0039 17.6346C19.6263 17.7372 19.2943 17.7885 19.0078 17.7885C18.8385 17.7885 18.5846 17.7628 18.2461 17.7115C18.5195 18.5192 19.0046 19.1859 19.7012 19.7115C20.3978 20.2372 21.1888 20.5064 22.0742 20.5192C20.5638 21.6731 18.8646 22.25 16.9766 22.25C16.638 22.25 16.3125 22.2308 16 22.1923C17.9271 23.3974 20.0234 24 22.2891 24C23.7474 24 25.1146 23.7724 26.3906 23.3173C27.6667 22.8622 28.7604 22.2532 29.6719 21.4904C30.5833 20.7276 31.3678 19.8494 32.0254 18.8558C32.6829 17.8622 33.1712 16.8237 33.4902 15.7404C33.8092 14.657 33.9687 13.5769 33.9687 12.5C33.9687 12.2692 33.9622 12.0962 33.9492 11.9808C34.7695 11.4038 35.4531 10.7051 36 9.88462Z" fill="#FFF7E4"/>
<rect x="0.5" y="0.5" width="51" height="31" rx="15.5" stroke="#FFF7E4"/>
</svg>
